<?xml version="1.0" encoding="utf-8"?>
<svg xmlns="http://www.w3.org/2000/svg" viewBox="0 0 1024 1024" fill="#000">
    <path d="M512.002133 1023.995733a515.598918 515.598918 0 0 1-103.184636-10.40209 509.134945 509.134945 0 0 1-96.106267-29.832409 511.899734 511.899734 0 0 1-86.971371-47.201936 515.765318 515.765318 0 0 1-75.771417-62.519207 515.624518 515.624518 0 0 1-62.523473-75.775684 512.0448 512.0448 0 0 1-47.206203-86.975637 509.198945 509.198945 0 0 1-29.836676-96.102A515.837851 515.837851 0 0 1 0.004267 511.997867a515.765318 515.765318 0 0 1 10.40209-103.184637 509.314145 509.314145 0 0 1 29.836675-96.106266 512.0448 512.0448 0 0 1 47.206204-86.975638 515.611718 515.611718 0 0 1 62.523472-75.775684 515.910384 515.910384 0 0 1 75.771418-62.51494A512.479998 512.479998 0 0 1 312.715497 40.234499a509.740809 509.740809 0 0 1 96.106266-29.832409A516.008517 516.008517 0 0 1 512.002133 0a516.01705 516.01705 0 0 1 103.184637 10.40209A509.71521 509.71521 0 0 1 711.293036 40.234499a512.322132 512.322132 0 0 1 86.971371 47.206203 515.773851 515.773851 0 0 1 75.775684 62.51494 515.679985 515.679985 0 0 1 62.519207 75.775684 512.202666 512.202666 0 0 1 47.206203 86.975638 509.553077 509.553077 0 0 1 29.832409 96.106266A515.765318 515.765318 0 0 1 1024 511.997867a515.837851 515.837851 0 0 1-10.40209 103.188903 509.437877 509.437877 0 0 1-29.832409 96.102 512.202666 512.202666 0 0 1-47.206203 86.975637 515.411186 515.411186 0 0 1-62.519207 75.775684 515.628785 515.628785 0 0 1-75.775684 62.519207 511.741868 511.741868 0 0 1-86.971371 47.201936 509.109345 509.109345 0 0 1-96.106266 29.832409A515.603185 515.603185 0 0 1 512.002133 1023.995733z m0-853.329777l-341.331911 341.331911h682.663822l-341.331911-341.331911z" />
</svg>
