<svg viewBox="0 0 1024 1024" xmlns="http://www.w3.org/2000/svg">
  <path d="m513.50018,564.07215c-18.29886,-30.51536 -42.69745,-52.44827 -73.19556,-63.89153c24.39859,-13.35047 43.4598,-35.28338 57.18405,-63.89153c13.72415,-27.65454 20.58612,-59.12351 20.58612,-93.45329c0,-20.97931 -3.04981,-41.00501 -9.14933,-61.98432c-6.09973,-20.97931 -14.4866,-39.0978 -24.39859,-55.30909c-10.67434,-16.21128 -23.63603,-29.56175 -38.88498,-40.05141c-15.24905,-9.53605 -32.78557,-15.25768 -51.08443,-15.25768l-269.14578,0l0,524.48274l68.62084,0l0,-450.10155l176.88891,0c10.67434,0 21.34867,2.86081 31.26056,8.58244c9.91188,6.67523 18.29886,14.30407 25.16094,23.84012c6.86207,10.48965 12.19924,22.88652 16.77396,36.23699c3.81237,14.30407 6.09973,29.56175 6.09973,44.81943c0,16.21128 -2.28736,30.51536 -6.86218,43.86583c-4.57472,13.35047 -9.91188,25.74733 -17.53641,35.28338c-7.62442,10.48965 -16.01151,19.0721 -25.92328,24.79373c-10.67444,5.72163 -22.11123,8.58244 -33.54792,8.58244l-103.69367,0l0,69.61316l125.04223,0c12.19935,0 22.87358,3.81442 33.54792,9.53605c9.91199,6.67523 18.29886,15.25768 25.9235,25.74733c7.62442,11.44326 12.96159,23.84012 17.53641,38.1442c4.57461,14.30407 6.86197,28.60815 6.86197,43.86583c0,15.25768 -2.28736,30.51536 -6.86197,43.86583c-5.33727,14.30407 -11.4369,26.70094 -19.06132,37.19059c-8.38709,10.48965 -18.29897,19.0721 -28.21075,24.79373c-10.67444,6.67523 -22.87369,9.53605 -35.07282,9.53605l-256.94665,0l0,74.38119l256.94665,0c21.34857,0 41.93479,-3.81442 60.99611,-12.39686c19.06142,-7.62884 35.83538,-20.0257 50.32198,-35.28338c14.48649,-15.25768 25.92328,-33.37617 34.31026,-55.30909c8.38698,-20.97931 12.9618,-44.81943 12.9618,-71.52037c0,-41.95862 -9.14954,-78.19561 -27.4483,-108.71097l0,0.00001z"/>
  <path d="m639.35654,796.87254c-20.98221,-7.73319 -38.58009,-18.78059 -52.79394,-33.14222c-14.8905,-14.36163 -27.07381,-30.38037 -35.19596,-49.16096c-8.7989,-18.78059 -12.85997,-38.11356 -12.85997,-59.656c0,-19.33296 3.38423,-38.66593 11.50628,-57.44652c7.4453,-18.78059 18.27492,-34.79933 32.48858,-49.16096c13.537,-14.36163 30.45804,-25.40904 50.7635,-34.24696c19.62852,-8.83793 41.28747,-13.25689 66.33075,-13.25689c29.7812,0 56.17817,5.5237 80.5446,16.57111c23.68968,11.04741 42.64135,28.17089 57.53186,50.81807l46.70242,-26.51378c-16.24438,-24.85667 -39.25713,-45.84674 -69.03832,-61.86548c-29.7812,-15.46637 -68.36129,-23.75193 -114.38687,-23.75193c-32.48858,0 -62.26977,5.5237 -89.34359,16.01874c-27.75066,11.04741 -51.44025,25.40904 -71.06867,43.63726c-20.30536,18.22822 -35.8729,39.2183 -46.70242,62.97022c-11.50628,23.75193 -16.92113,48.60859 -16.92113,75.12237c0,25.96141 5.41486,50.2657 16.92113,74.01763c11.50637,24.3043 27.07391,45.29437 47.37927,64.07496c19.62842,18.78059 42.64116,33.69459 70.39182,44.742c27.07381,11.59978 56.85501,17.12348 89.34359,17.12348c33.84227,0 64.97725,-6.62844 94.0816,-20.99007l0,-46.39911c-28.42751,15.46637 -58.2087,22.64719 -89.34368,22.64719c-24.36634,0 -46.02539,-3.86659 -66.33085,-12.15215zm104.23428,-141.40682l0,37.56119l103.55725,0l0,157.97793l51.44025,0l0,-195.53911l-154.99749,0l-0.00001,-0.00001z" />
</svg>